<svg width="470" height="470" viewBox="0 0 470 470" fill="none" xmlns="http://www.w3.org/2000/svg">
<path d="M346.315 30.9209H123.683C72.4514 30.9209 30.9199 72.4524 30.9199 123.684V346.316C30.9199 397.547 72.4514 439.079 123.683 439.079H346.315C397.546 439.079 439.078 397.547 439.078 346.316V123.684C439.078 72.4524 397.546 30.9209 346.315 30.9209Z" fill="url(#paint0_linear_426_4962)"/>
<path d="M346.315 30.9209H123.683C72.4514 30.9209 30.9199 72.4524 30.9199 123.684V346.316C30.9199 397.547 72.4514 439.079 123.683 439.079H346.315C397.546 439.079 439.078 397.547 439.078 346.316V123.684C439.078 72.4524 397.546 30.9209 346.315 30.9209Z" fill="url(#paint1_radial_426_4962)"/>
<mask id="mask0_426_4962" style="mask-type:alpha" maskUnits="userSpaceOnUse" x="0" y="-1" width="470" height="471">
<path d="M363.182 -0.00012207H106.818C47.8241 -0.00012207 0 47.824 0 106.818V363.182C0 422.176 47.8241 470 106.818 470H363.182C422.176 470 470 422.176 470 363.182V106.818C470 47.824 422.176 -0.00012207 363.182 -0.00012207Z" fill="#17D2FF"/>
</mask>
<g mask="url(#mask0_426_4962)">
<g opacity="0.5">
<path fill-rule="evenodd" clip-rule="evenodd" d="M581.314 -112.316L-111.317 -112.316V-111.316H-112.317V581.316H-111.317V582.316H581.314V581.316H582.315V-111.316H581.314V-112.316ZM580.315 580.316H495.735V495.737H580.315V580.316ZM493.735 580.316H409.156V495.737H493.735V580.316ZM407.156 580.316H322.578V495.737H407.156V580.316ZM320.578 580.316H235.998V495.737H320.578V580.316ZM233.998 580.316H149.42V495.737H233.998V580.316ZM147.42 580.316H62.8428V495.737H147.42V580.316ZM60.8428 580.316H-23.7393V495.737H60.8428V580.316ZM-25.7393 580.316H-110.317V495.737H-25.7393V580.316ZM580.315 493.737H495.735V409.158H580.315V493.737ZM580.315 407.158H495.735V322.579H580.315V407.158ZM493.735 493.737V409.158H409.156V493.737H493.735ZM493.735 407.158H409.156V322.579H493.735V407.158ZM407.156 493.737V409.158H322.578V493.737H407.156ZM407.156 407.158H322.578V322.579H407.156V407.158ZM320.578 493.737V409.158H235.998V493.737H320.578ZM320.578 407.158H235.998V322.579H320.578V407.158ZM233.998 493.737V409.158H149.42V493.737H233.998ZM233.998 407.158H149.42V322.579H233.998V407.158ZM147.42 493.737V409.158H62.8428V493.737H147.42ZM147.42 407.158H62.8428V322.579H147.42V407.158ZM60.8428 493.737V409.158H-23.7393V493.737H60.8428ZM60.8428 407.158H-23.7393V322.579H60.8428V407.158ZM-25.7393 493.737V409.158H-110.317V493.737H-25.7393ZM-25.7393 407.158H-110.317V322.579H-25.7393V407.158ZM-110.317 236V320.579H-25.7393V236H-110.317ZM-110.317 234H-25.7393V149.421H-110.317V234ZM-23.7393 234V149.421H60.8428V234H-23.7393ZM-23.7393 236H60.8428V320.579H-23.7393V236ZM62.8428 236V320.579H147.42V236H62.8428ZM62.8428 234H147.42V149.421H62.8428V234ZM149.42 234V149.421H233.998V234H149.42ZM149.42 236H233.998V320.579H149.42V236ZM235.998 236V320.579H320.578V236H235.998ZM235.998 234H320.578V149.421H235.998V234ZM322.578 234V149.421H407.156V234H322.578ZM322.578 236H407.156V320.579H322.578V236ZM409.156 236V320.579H493.735V236H409.156ZM409.156 234H493.735V149.421H409.156V234ZM495.735 234V149.421H580.315V234H495.735ZM495.735 236H580.315V320.579H495.735V236ZM580.315 147.421H495.735V62.842H580.315V147.421ZM580.315 60.842H495.735V-23.7369H580.315V60.842ZM493.735 -23.7369V60.842H409.156V-23.7369H493.735ZM409.156 62.842H493.735V147.421H409.156V62.842ZM407.156 147.421V62.842H322.578V147.421H407.156ZM322.578 60.842H407.156V-23.7369H322.578V60.842ZM320.578 -23.7369V60.842H235.998V-23.7369H320.578ZM235.998 62.842H320.578V147.421H235.998V62.842ZM233.998 147.421V62.8421H149.42V147.421H233.998ZM149.42 60.8421H233.998V-23.7369H149.42V60.8421ZM147.42 -23.7369V60.8421H62.8428V-23.7369H147.42ZM62.8428 62.8421H147.42V147.421H62.8428V62.8421ZM60.8428 147.421V62.8421H-23.7393V147.421H60.8428ZM-23.7393 60.8421H60.8428V-23.7369H-23.7393V60.8421ZM-25.7393 -23.7369V60.8421H-110.317V-23.7369H-25.7393ZM-110.317 62.8421H-25.7393V147.421H-110.317V62.8421ZM-25.7393 -110.316L-110.317 -110.316V-25.7369H-25.7393V-110.316ZM60.8428 -110.316L-23.7393 -110.316V-25.7369H60.8428V-110.316ZM147.42 -110.316L62.8428 -110.316V-25.7369H147.42V-110.316ZM233.998 -110.316L149.42 -110.316V-25.7369H233.998V-110.316ZM320.578 -110.316L235.998 -110.316V-25.7369H320.578V-110.316ZM407.156 -110.316L322.578 -110.316V-25.7369H407.156V-110.316ZM493.735 -110.316L409.156 -110.316V-25.7369H493.735V-110.316ZM580.315 -110.316L495.735 -110.316V-25.7369H580.315V-110.316Z" fill="url(#paint2_linear_426_4962)"/>
</g>
<path d="M409 235C409 331.098 331.098 409 235 409C138.902 409 61 331.098 61 235C61 138.902 138.902 61 235 61C331.098 61 409 138.902 409 235Z" stroke="url(#paint3_linear_426_4962)" stroke-width="2"/>
</g>
<path fill-rule="evenodd" clip-rule="evenodd" d="M363.182 43.9999H106.818C72.1247 43.9999 44 72.1245 44 106.818V363.182C44 397.875 72.1247 426 106.818 426H363.182C397.875 426 426 397.875 426 363.182V106.818C426 72.1245 397.875 43.9999 363.182 43.9999ZM106.818 -0.00012207H363.182C422.176 -0.00012207 470 47.824 470 106.818V363.182C470 422.176 422.176 470 363.182 470H106.818C47.8241 470 0 422.176 0 363.182V106.818C0 47.824 47.8241 -0.00012207 106.818 -0.00012207Z" fill="url(#paint4_linear_426_4962)"/>
<path fill-rule="evenodd" clip-rule="evenodd" d="M106.818 41.9999H363.182C398.98 41.9999 428 71.02 428 106.818V363.182C428 398.98 398.98 428 363.182 428H106.818C71.0201 428 42 398.98 42 363.182V106.818C42 71.02 71.0201 41.9999 106.818 41.9999ZM106.818 43.9999H363.182C397.875 43.9999 426 72.1245 426 106.818V363.182C426 397.875 397.875 426 363.182 426H106.818C72.1247 426 44 397.875 44 363.182V106.818C44 72.1245 72.1247 43.9999 106.818 43.9999Z" fill="url(#paint5_linear_426_4962)"/>
<path d="M106.818 11.9999H363.182C415.549 11.9999 458 54.4514 458 106.818V363.182C458 415.548 415.549 458 363.182 458H106.818C54.4515 458 12 415.548 12 363.182V106.818C12 54.4514 54.4516 11.9999 106.818 11.9999Z" stroke="url(#paint6_linear_426_4962)" stroke-width="24"/>
<path fill-rule="evenodd" clip-rule="evenodd" d="M106.818 21.7367H363.182C410.171 21.7367 448.263 59.8289 448.263 106.818V363.182C448.263 410.171 410.171 448.263 363.182 448.263H106.818C59.8291 448.263 21.7368 410.171 21.7368 363.182V106.818C21.7368 59.8289 59.8291 21.7367 106.818 21.7367ZM363.182 2.99988H106.818C49.481 2.99988 3 49.4809 3 106.818V363.182C3 420.519 49.481 467 106.818 467H363.182C420.519 467 467 420.519 467 363.182V106.818C467 49.4809 420.519 2.99988 363.182 2.99988ZM106.818 24.7367H363.182C408.514 24.7367 445.263 61.4858 445.263 106.818V363.182C445.263 408.514 408.514 445.263 363.182 445.263H106.818C61.4859 445.263 24.7368 408.514 24.7368 363.182V106.818C24.7368 61.4858 61.4859 24.7367 106.818 24.7367ZM363.182 -0.00012207H106.818C47.8241 -0.00012207 0 47.824 0 106.818V363.182C0 422.176 47.8241 470 106.818 470H363.182C422.176 470 470 422.176 470 363.182V106.818C470 47.824 422.176 -0.00012207 363.182 -0.00012207Z" fill="url(#paint7_linear_426_4962)"/>
<g filter="url(#filter0_i_426_4962)">
<path d="M181.691 107.5C182.929 107.5 184.098 108.074 184.855 109.053L187.866 112.947C189.898 115.575 190 118.802 190 122.123V204.5L280.074 107H334.129C335.591 107 336.936 107.798 337.638 109.08L339.396 112.293C339.554 112.583 339.691 112.885 339.758 113.208C340.084 114.784 339.632 116.433 338.522 117.626L231.5 231L351 352.5C354.683 356.259 353.762 361.902 348.5 362L297.694 362.03C296.303 362.056 294.965 361.502 294 360.5L190 251V355C190 358.866 186.866 362 183 362H148.167C146.436 362 144.751 361.439 143.367 360.4L136.5 354.25V111.5C136.5 109.291 138.291 107.5 140.5 107.5H181.691Z" fill="url(#paint8_linear_426_4962)"/>
</g>
<path d="M181.654 354.25C182.759 354.25 183.654 353.354 183.654 352.25V247.061C183.654 246.161 184.75 245.719 185.374 246.367L288.815 353.638C289.192 354.029 289.711 354.25 290.254 354.25H346.5C347.605 354.25 348.5 353.354 348.5 352.25V352.015C348.5 351.495 348.297 350.995 347.935 350.622L228.532 227.678C227.786 226.91 227.777 225.692 228.511 224.913L335.992 110.872C337.194 109.596 336.289 107.5 334.536 107.5H280.944C280.389 107.5 279.859 107.731 279.48 108.137L185.386 209.213C184.768 209.878 183.654 209.44 183.654 208.532V109.5C183.654 108.395 182.759 107.5 181.654 107.5H139C137.895 107.5 137 108.395 137 109.5V352.25C137 353.354 137.895 354.25 139 354.25H181.654Z" fill="url(#paint9_linear_426_4962)"/>
<defs>
<filter id="filter0_i_426_4962" x="136.5" y="107" width="216.727" height="255.031" filterUnits="userSpaceOnUse" color-interpolation-filters="sRGB">
<feFlood flood-opacity="0" result="BackgroundImageFix"/>
<feBlend mode="normal" in="SourceGraphic" in2="BackgroundImageFix" result="shape"/>
<feColorMatrix in="SourceAlpha" type="matrix" values="0 0 0 0 0 0 0 0 0 0 0 0 0 0 0 0 0 0 127 0" result="hardAlpha"/>
<feOffset/>
<feGaussianBlur stdDeviation="4"/>
<feComposite in2="hardAlpha" operator="arithmetic" k2="-1" k3="1"/>
<feColorMatrix type="matrix" values="0 0 0 0 1 0 0 0 0 1 0 0 0 0 1 0 0 0 1 0"/>
<feBlend mode="normal" in2="shape" result="effect1_innerShadow_426_4962"/>
</filter>
<linearGradient id="paint0_linear_426_4962" x1="403.484" y1="30.9209" x2="371.596" y2="413.569" gradientUnits="userSpaceOnUse">
<stop stop-color="#17D2FF"/>
<stop offset="1" stop-color="#704EFF"/>
<stop offset="1" stop-color="#704EFF"/>
</linearGradient>
<radialGradient id="paint1_radial_426_4962" cx="0" cy="0" r="1" gradientUnits="userSpaceOnUse" gradientTransform="translate(94.0233 396.115) rotate(-59.7653) scale(186.482 595.865)">
<stop stop-color="#2845E5"/>
<stop offset="0.875" stop-color="#704EFF" stop-opacity="0"/>
</radialGradient>
<linearGradient id="paint2_linear_426_4962" x1="234.999" y1="27.5" x2="234.999" y2="582.316" gradientUnits="userSpaceOnUse">
<stop stop-color="#D8F6FF"/>
<stop offset="0.515625" stop-color="white" stop-opacity="0.7"/>
<stop offset="1" stop-color="#9D9BFF" stop-opacity="0.22"/>
</linearGradient>
<linearGradient id="paint3_linear_426_4962" x1="235" y1="60" x2="235" y2="410" gradientUnits="userSpaceOnUse">
<stop stop-color="white" stop-opacity="0.6"/>
<stop offset="1" stop-color="white" stop-opacity="0.25"/>
</linearGradient>
<linearGradient id="paint4_linear_426_4962" x1="235" y1="-0.00012207" x2="235" y2="470" gradientUnits="userSpaceOnUse">
<stop stop-color="#209FE0"/>
<stop offset="0.9999" stop-color="#372C9D"/>
<stop offset="1" stop-color="#77B6CA" stop-opacity="0"/>
</linearGradient>
<linearGradient id="paint5_linear_426_4962" x1="235" y1="-0.000119476" x2="235" y2="470" gradientUnits="userSpaceOnUse">
<stop stop-color="#C9EFFF"/>
<stop offset="0.526042" stop-color="white" stop-opacity="0.49"/>
<stop offset="1" stop-color="#9582EE"/>
</linearGradient>
<linearGradient id="paint6_linear_426_4962" x1="235" y1="-0.00012207" x2="235" y2="470" gradientUnits="userSpaceOnUse">
<stop offset="0.0001" stop-color="#DEF4FF"/>
<stop offset="0.492792" stop-color="#F4FCFF"/>
<stop offset="1" stop-color="#B8B7FF"/>
</linearGradient>
<linearGradient id="paint7_linear_426_4962" x1="235" y1="-0.00012207" x2="235" y2="470" gradientUnits="userSpaceOnUse">
<stop offset="0.0001" stop-color="#B4DFFF" stop-opacity="0.65"/>
<stop offset="0.447917" stop-color="#E9F8FF"/>
<stop offset="1" stop-color="#483CD1" stop-opacity="0.55"/>
</linearGradient>
<linearGradient id="paint8_linear_426_4962" x1="252.75" y1="122.501" x2="252.75" y2="366.5" gradientUnits="userSpaceOnUse">
<stop stop-color="#99C8FF"/>
<stop offset="0.473958" stop-color="#C4CCFF"/>
<stop offset="1" stop-color="#BBB1FF"/>
</linearGradient>
<linearGradient id="paint9_linear_426_4962" x1="243" y1="107" x2="243" y2="354" gradientUnits="userSpaceOnUse">
<stop offset="0.0001" stop-color="#E9F9FF"/>
<stop offset="1" stop-color="#F7F5FF"/>
</linearGradient>
</defs>
</svg>
